HIERARCHY
ROOT ui
{
	 OFFSET 0 0 0
	 CHANNELS 3 XPosition YPosition Z Position
	 EndSite
	 {
	 OFFSET 0 -1 0
	 }
}
ROOT li
{
	 OFFSET 0 0 0
	 CHANNELS 3 XPosition YPosition Z Position
	 EndSite
	 {
	 OFFSET 0 -1 0
	 }
}
ROOT ul
{
	 OFFSET 0 0 0
	 CHANNELS 3 XPosition YPosition Z Position
	 EndSite
	 {
	 OFFSET 0 -1 0
	 }
}
ROOT ll
{
	 OFFSET 0 0 0
	 CHANNELS 3 XPosition YPosition Z Position
	 EndSite
	 {
	 OFFSET 0 -1 0
	 }
}
ROOT tt
{
	 OFFSET 0 0 0
	 CHANNELS 3 XPosition YPosition Z Position
	 EndSite
	 {
	 OFFSET 0 -1 0
	 }
}
ROOT tb
{
	 OFFSET 0 0 0
	 CHANNELS 3 XPosition YPosition Z Position
	 EndSite
	 {
	 OFFSET 0 -1 0
	 }
}
ROOT td
{
	 OFFSET 0 0 0
	 CHANNELS 3 XPosition YPosition Z Position
	 EndSite
	 {
	 OFFSET 0 -1 0
	 }
}
ROOT v
{
	 OFFSET 0 0 0
	 CHANNELS 3 XPosition YPosition Z Position
	 EndSite
	 {
	 OFFSET 0 -1 0
	 }
}
ROOT bn
{
	 OFFSET 0 0 0
	 CHANNELS 3 XPosition YPosition Z Position
	 EndSite
	 {
	 OFFSET 0 -1 0
	 }
}
MOTION
Frames: 30
Frame Time: 0.002
0.011725272178649902	0.0024953060150146485	0		0.5696995239257813	-2.497497802734375	0		-0.89908642578125	0.25323818969726564	0		-0.4747657470703125	-2.457481689453125	0		1.4069796142578126	-0.8066841430664062	0		2.840650390625	0.14773623657226562	0		4.2858671875	0.3218414916992188	0		5.8881494140625	0.36595062255859373	0		-0.31473291015625	5.89400048828125	0		
0.0017707979679107667	-0.007530289173126221	0		0.5679356689453126	-2.499650390625	0		-0.9777777709960938	0.2593790283203125	0		-0.5125079345703125	-2.458036865234375	0		1.40721337890625	-0.806853271484375	0		2.83891552734375	0.15063206481933594	0		4.271216796875	0.32999166870117186	0		5.87262841796875	0.36821185302734377	0		-0.31562655639648435	5.89481103515625	0		
0.009093133926391602	-8.085160255432128E-4	0		0.5681756591796875	-2.499798583984375	0		-0.971665771484375	0.2541051788330078	0		-0.46951577758789065	-2.47293896484375	0		1.36648583984375	-0.8032840576171875	0		2.81710205078125	0.14989627075195314	0		4.26915673828125	0.3149351501464844	0		5.87646142578125	0.38524114990234376	0		-0.29835919189453125	5.90335595703125	0		
-0.012645694732666015	0.003455157995223999	0		0.5314444580078125	-2.496271728515625	0		-1.0322635498046875	0.267029541015625	0		-0.4913526611328125	-2.4756787109375	0		1.3666822509765626	-0.8033858642578126	0		2.8546455078125	0.17016812133789064	0		4.2767890625	0.3407353210449219	0		5.88027294921875	0.4005548400878906	0		-0.16588177490234374	5.9219658203125	0		
0.016576210021972657	0.005884477138519287	0		0.601670654296875	-2.494545166015625	0		-0.8851289672851562	0.2634263610839844	0		-0.45825863647460935	-2.48131884765625	0		1.3668602294921874	-0.8034517822265625	0		2.8107744140625	0.16786534118652344	0		4.26798095703125	0.34183602905273436	0		5.8887099609375	0.365521484375	0		-0.16669711303710938	5.92391064453125	0		
-0.012312012672424317	0.0033540289402008054	0		0.5727991333007812	-2.496075927734375	0		-0.9738363037109375	0.27192623901367186	0		-0.46625357055664063	-2.49020947265625	0		1.4018592529296876	-0.8130819702148437	0		2.806037353515625	0.17392041015625	0		4.26814013671875	0.34180575561523435	0		5.873146484375	0.36785272216796877	0		-0.3150653076171875	5.8944306640625	0		
0.009758127212524415	-0.001012671947479248	0		0.6207515869140625	-2.506891357421875	0		-0.9777611694335937	0.2680107727050781	0		-0.4505371398925781	-2.514468017578125	0		1.3582108154296875	-0.800322021484375	0		2.811076416015625	0.1678343505859375	0		4.25728515625	0.34198776245117185	0		5.8774033203125	0.350352294921875	0		-0.31391534423828127	5.89342578125	0		
-0.015097103118896484	4.666149914264679E-4	0		0.5730344848632812	-2.4960224609375	0		-0.9576725463867187	0.26572418212890625	0		-0.488445068359375	-2.51476123046875	0		1.3992877197265625	-0.8029887084960937	0		2.7965478515625	0.18811622619628907	0		4.253619140625	0.3540699157714844	0		5.87702392578125	0.3849801940917969	0		-0.16619802856445312	5.923943359375	0		
0.009986525535583496	-8.782349824905395E-4	0		0.5840057373046875	-2.50213232421875	0		-0.95756494140625	0.2658203125	0		-0.4775256652832031	-2.5238583984375	0		1.32946240234375	-0.7977147216796875	0		2.78553564453125	0.1813601837158203	0		4.2537275390625	0.3541069030761719	0		5.8849306640625	0.382954345703125	0		-0.29838543701171877	5.904306640625	0		
-0.011856524467468262	0.0036188709735870362	0		0.5751940307617187	-2.493867919921875	0		-0.9583211669921875	0.2749686279296875	0		-0.45270465087890627	-2.53716162109375	0		1.4025076904296876	-0.7998727416992187	0		2.8049130859375	0.19810923767089844	0		4.24693896484375	0.3612845153808594	0		5.884990234375	0.38301376342773436	0		-0.16489151000976562	5.922134765625	0		
0.010136234283447265	-6.102039813995361E-4	0		0.5731824340820313	-2.495693359375	0		-0.9574069213867188	0.2661185913085938	0		-0.5008826293945312	-2.548174560546875	0		1.3416199951171874	-0.7956951904296875	0		2.800895751953125	0.19328096008300782	0		4.24289013671875	0.35443203735351564	0		5.8813603515625	0.36768035888671874	0		-0.31323870849609375	5.8938447265625	0		
-0.014797313690185547	9.987620115280151E-4	0		0.5711446533203125	-2.4974921875	0		-0.968181884765625	0.27650344848632813	0		-0.44218954467773436	-2.566003662109375	0		1.396693359375	-0.793494140625	0		2.764071533203125	0.20104144287109374	0		4.236064453125	0.36164614868164063	0		5.873546875	0.368115478515625	0		-0.18069998168945312	5.91474560546875	0		
0.0030884730815887453	-0.007108328819274902	0		0.5789241943359374	-2.50843896484375	0		-1.0313123779296876	0.26781854248046877	0		-0.5125036010742188	-2.581578125	0		1.32067919921875	-0.7940083618164062	0		2.76898095703125	0.19409686279296876	0		4.2172060546875	0.3680816955566406	0		5.8869052734375	0.33826394653320313	0		-0.2967484130859375	5.9039599609375	0		
0.0132694091796875	0.0029418790340423585	0		0.5839908447265625	-2.50131640625	0		-0.9463435668945313	0.2645979309082031	0		-0.44977655029296876	-2.594429443359375	0		1.3705745849609374	-0.7996817626953125	0		2.788286865234375	0.21092037963867188	0		4.22543115234375	0.38005990600585937	0		5.88576904296875	0.37823876953125	0		-0.16326361083984375	5.92188623046875	0		
0.013262411117553712	0.003186467885971069	0		0.585947021484375	-2.499123046875	0		-1.0221582641601563	0.27618649291992187	0		-0.493989501953125	-2.6014072265625	0		1.3237078857421876	-0.7896619262695312	0		2.759220703125	0.20758969116210937	0		4.21645361328125	0.3813407287597656	0		5.88207373046875	0.36122430419921875	0		-0.2964292297363281	5.90444580078125	0		
-0.011741015434265136	0.004882862091064453	0		0.5729137573242188	-2.49465380859375	0		-0.9522542114257813	0.2712660217285156	0		-0.484238037109375	-2.609301513671875	0		1.3556705322265625	-0.7889979858398437	0		2.7543251953125	0.21484970092773437	0		4.21644091796875	0.38146823120117185	0		5.8832080078125	0.3232366943359375	0		-0.29626483154296873	5.9047177734375	0		
-0.01890610122680664	-0.0017167099714279176	0		0.570745361328125	-2.4963623046875	0		-1.0262777099609375	0.27286572265625	0		-0.52952587890625	-2.61722216796875	0		1.341495361328125	-0.7945248413085938	0		2.751201904296875	0.21008100891113282	0		4.22128759765625	0.37450811767578124	0		5.87834375	0.34604681396484377	0		-0.31128683471679686	5.89426806640625	0		
0.002955528974533081	-0.0058113222122192386	0		0.5804232788085938	-2.505269775390625	0		-0.9523433227539062	0.2719027099609375	0		-0.45810650634765626	-2.641166259765625	0		1.3472933349609375	-0.8003934936523438	0		2.741373291015625	0.22343312072753907	0		4.22944580078125	0.38648834228515627	0		5.8868037109375	0.33886123657226563	0		-0.2959300537109375	5.90530517578125	0		
-0.011934487342834473	0.005744662761688233	0		0.5822678833007813	-2.5030341796875	0		-1.026405029296875	0.27353280639648436	0		-0.5292565307617187	-2.63760986328125	0		1.329247802734375	-0.7958406372070312	0		2.7510693359375	0.2104399871826172	0		4.22937744140625	0.38660540771484375	0		5.89043212890625	0.3560867614746094	0		-0.1634184265136719	5.92430029296875	0		
0.012943511009216308	0.0046063179969787595	0		0.599212158203125	-2.494059814453125	0		-0.9525052490234375	0.27257952880859376	0		-0.43376870727539063	-2.65496826171875	0		1.355967529296875	-0.8040719604492188	0		2.7491708984375	0.22165187072753906	0		4.22929345703125	0.38671893310546873	0		5.88666748046875	0.3390087890625	0		-0.1632588806152344	5.92460693359375	0		
-0.015200711250305176	0.003397981882095337	0		0.5797955932617187	-2.50445166015625	0		-1.0265950927734375	0.2742232666015625	0		-0.4642260437011719	-2.66711962890625	0		1.355817626953125	-0.8038335571289063	0		2.761977294921875	0.216599609375	0		4.20134228515625	0.39531878662109377	0		5.89027490234375	0.35621044921875	0		-0.31064505004882814	5.89550390625	0		
0.0025333449840545656	-0.00462229585647583	0		0.6195697021484375	-2.503888427734375	0		-0.9686080322265626	0.2795421142578125	0		-0.43972149658203125	-2.68124169921875	0		1.331626953125	-0.8051773071289062	0		2.74099169921875	0.22413697814941405	0		4.19023974609375	0.39561483764648436	0		5.88649462890625	0.33910565185546876	0		-0.3104965515136719	5.89581298828125	0		
-0.02257119369506836	-0.0028951590061187743	0		0.5772815551757813	-2.505888671875	0		-1.031887939453125	0.27098751831054685	0		-0.4980329895019531	-2.68391015625	0		1.352177734375	-0.821322021484375	0		2.741663818359375	0.21228001403808594	0		4.187115234375	0.3947598571777344	0		5.89009375	0.3562709045410156	0		-0.16182511901855468	5.9244921875	0		
0.04422400283813477	-0.007809455871582031	0		0.5899530029296876	-2.510873291015625	0		-1.0269287109375	0.27521685791015627	0		-0.4766014709472656	-2.7020029296875	0		1.3581400146484375	-0.814219970703125	0		2.77582861328125	0.2278208770751953	0		4.19111572265625	0.4007677917480469	0		5.8900048828125	0.3562716064453125	0		-0.29308203125	5.90309619140625	0		
-0.0028127410411834717	-0.002723484992980957	0		0.5819407958984375	-2.498505859375	0		-1.0270313720703126	0.2755161437988281	0		-0.49074560546875	-2.696480224609375	0		1.3579888916015626	-0.8140267944335937	0		2.736570068359375	0.21964518737792968	0		4.1981416015625	0.4077093505859375	0		5.88992041015625	0.35625433349609376	0		-0.16152842712402343	5.92503173828125	0		
0.034184242248535154	0.0028501689434051515	0		0.6196889038085938	-2.5009736328125	0		-0.9690258178710938	0.28075946044921873	0		-0.5119787902832031	-2.696851806640625	0		1.3517265625	-0.8207432861328126	0		2.7434921875	0.22063722229003907	0		4.19394921875	0.4018361511230469	0		5.88615185546875	0.3390786437988281	0		-0.3099085693359375	5.89691259765625	0		
-0.01318809700012207	-0.012098272323608399	0		0.5764119873046875	-2.5050185546875	0		-1.048167724609375	0.27842041015625	0		-0.44060308837890627	-2.720901123046875	0		1.3784522705078126	-0.8290665283203125	0		2.748281005859375	0.21365078735351561	0		4.18187255859375	0.4020939636230469	0		5.88977587890625	0.35617776489257813	0		-0.1612371826171875	5.92548974609375	0		
0.0018807469606399536	-0.0031786661148071288	0		0.5762303466796875	-2.50485107421875	0		-1.048246826171875	0.27864788818359376	0		-0.5117455444335938	-2.717426513671875	0		1.358353515625	-0.8275709228515625	0		2.741576171875	0.23486013793945312	0		4.19077880859375	0.40096780395507814	0		5.88971044921875	0.35612677001953125	0		-0.2934803466796875	5.906048828125	0		
-0.023186635971069337	-0.001564386010169983	0		0.5780936279296875	-2.50273974609375	0		-1.0442557373046875	0.28277685546875	0		-0.4481142883300781	-2.72838818359375	0		1.3633614501953124	-0.8205401611328125	0		2.76002587890625	0.20859954833984376	0		4.1899541015625	0.4150111389160156	0		5.8896455078125	0.356075439453125	0		-0.16100080871582031	5.9258564453125	0		
0.011876411437988281	0.006952364921569824	0		0.6049241943359375	-2.50309521484375	0		-1.0602301025390626	0.2892388916015625	0		-0.5172030029296875	-2.722991943359375	0		1.372189697265625	-0.8235949096679688	0		2.75195849609375	0.20980888366699219	0		4.19774609375	0.40789328002929687	0		5.88957861328125	0.3560314636230469	0		-0.2932959289550781	5.90637939453125	0		
